<?xml version="1.0" encoding="UTF-8" standalone="no"?>
<svg
   xmlns:dc="http://purl.org/dc/elements/1.1/"
   xmlns:cc="http://creativecommons.org/ns#"
   xmlns:rdf="http://www.w3.org/1999/02/22-rdf-syntax-ns#"
   xmlns:svg="http://www.w3.org/2000/svg"
   xmlns="http://www.w3.org/2000/svg"
   xmlns:sodipodi="http://sodipodi.sourceforge.net/DTD/sodipodi-0.dtd"
   xmlns:inkscape="http://www.inkscape.org/namespaces/inkscape"
   version="1.1"
   x="0px"
   y="0px"
   viewBox="0 0 100 125"
   enable-background="new 0 0 100 100"
   xml:space="preserve"
   id="svg3733"
   sodipodi:docname="sand-clock.svg"
   inkscape:version="0.92.3 (2405546, 2018-03-11)"><metadata
     id="metadata3739"><rdf:RDF><cc:Work
         rdf:about=""><dc:format>image/svg+xml</dc:format><dc:type
           rdf:resource="http://purl.org/dc/dcmitype/StillImage" /></cc:Work></rdf:RDF></metadata><defs
     id="defs3737" /><sodipodi:namedview
     pagecolor="#ffffff"
     bordercolor="#666666"
     borderopacity="1"
     objecttolerance="10"
     gridtolerance="10"
     guidetolerance="10"
     inkscape:pageopacity="0"
     inkscape:pageshadow="2"
     inkscape:window-width="2048"
     inkscape:window-height="1099"
     id="namedview3735"
     showgrid="true"
     inkscape:zoom="7.44"
     inkscape:cx="50"
     inkscape:cy="72.471591"
     inkscape:window-x="-8"
     inkscape:window-y="-8"
     inkscape:window-maximized="1"
     inkscape:current-layer="svg3733"><inkscape:grid
       type="xygrid"
       id="grid3764" /></sodipodi:namedview><path
     d="M50,10.728c-21.655,0-39.272,17.617-39.272,39.272c0,21.654,17.617,39.271,39.272,39.271  c21.656,0,39.273-17.617,39.273-39.271C89.273,28.345,71.656,10.728,50,10.728 M45.375,40.167l10.348-12.75l17.154,13.921  l-2.328,2.87H46.587L45.375,40.167z M49.643,69.795l-2.405,2.963H27.235l-3.443-2.793c-0.446-0.584-0.873-1.182-1.28-1.797  l9.976-12.293l13.337,1.182L49.643,69.795z M50,82.965c-1.852,0-3.666-0.16-5.437-0.457l8.819-10.865  c0.828-1.02,0.762-2.414,0.123-3.926L50.294,57.24l10.911,0.988c1.637,0.08,2.99,0.09,3.816-0.93l11.971-14.75  c0.83-1.02,0.674-2.517-0.346-3.345L56.951,23.222c-1.018-0.828-2.516-0.672-3.344,0.348L41.637,38.32  c-0.829,1.019-0.762,2.415-0.124,3.926l3.21,10.475l-10.911-0.986c-1.635-0.08-2.989-0.09-3.816,0.928L20.398,64.49  c-2.151-4.377-3.364-9.293-3.364-14.49c0-18.179,14.788-32.966,32.966-32.966c18.18,0,32.967,14.788,32.967,32.966  C82.967,68.176,68.18,82.965,50,82.965"
     id="path3727" /></svg>